<svg xmlns="http://www.w3.org/2000/svg">
  <symbol id="si-facebook" viewBox="0 0 512 512">
    <path d="M499,256c0-134.2-108.8-243-243-243S13,121.7,13,256s78.5,209.6,184.3,235.9v-161.7h-50.1v-74.2h50.1v-32c0-82.7,37.4-121,118.7-121s42,3,52.9,6.1v67.2c-5.7-.6-15.7-.9-28.1-.9-39.9,0-55.2,15.1-55.2,54.3v26.4h79.4l-13.7,74.2h-65.8v167c120.4-14.5,213.6-116.9,213.6-241.2h0Z"/>
  </symbol>
  <symbol id="si-github" viewBox="0 0 512 512">
    <path d="M175.6,394.4c0,2-2.3,3.5-5.1,3.5-3.2.3-5.5-1.3-5.5-3.5s2.3-3.5,5.1-3.5c2.9-.3,5.5,1.3,5.5,3.5ZM145.1,390c-.7,2,1.3,4.2,4.2,4.8,2.5,1,5.5,0,6.1-2s-1.3-4.2-4.2-5.1c-2.5-.7-5.4.3-6.1,2.3h0ZM188.4,388.3c-2.8.7-4.8,2.5-4.5,4.8.3,2,2.8,3.2,5.8,2.5,2.8-.7,4.8-2.5,4.5-4.5-.3-1.9-2.9-3.1-5.8-2.8ZM252.9,12.9C117,12.9,13,116.1,13,252s68.4,201.7,166.1,234.4c12.5,2.3,17-5.5,17-11.9s-.3-39.6-.3-60.2c0,0-68.6,14.7-83-29.2,0,0-11.2-28.5-27.2-35.9,0,0-22.4-15.4,1.6-15.1,0,0,24.4,2,37.8,25.3,21.5,37.8,57.4,26.9,71.4,20.5,2.3-15.7,8.6-26.6,15.7-33-54.8-6.1-110-14-110-108.3s7.4-40.5,23.1-57.7c-2.5-6.4-10.9-32.6,2.5-66.5,20.5-6.4,67.6,26.5,67.6,26.5,19.6-5.5,40.7-8.3,61.5-8.3s41.9,2.8,61.5,8.3c0,0,47.1-32.9,67.6-26.5,13.4,34,5.1,60.2,2.5,66.5,15.7,17.3,25.3,30.9,25.3,57.7,0,94.6-57.7,102.1-112.5,108.3,9,7.7,16.7,22.4,16.7,45.5,0,33-.3,73.9-.3,81.9s4.5,14.1,17,11.9c98-32.5,164.4-125.5,164.4-234.2S388.8,12.9,252.9,12.9ZM108.2,350.8c-1.3,1-1,3.2.7,5.1,1.6,1.6,3.8,2.3,5.1,1,1.3-1,1-3.2-.7-5.1-1.6-1.6-3.8-2.3-5.1-1ZM97.7,342.9c-.7,1.3.3,2.8,2.3,3.8,1.6,1,3.5.7,4.2-.7.7-1.3-.3-2.8-2.3-3.8-2-.6-3.5-.3-4.2.7ZM129.4,377.8c-1.6,1.3-1,4.2,1.3,6.1,2.3,2.3,5.1,2.5,6.4,1,1.3-1.3.7-4.2-1.3-6.1-2.2-2.3-5.1-2.5-6.4-1ZM118.2,363.4c-1.6,1-1.6,3.5,0,5.8,1.6,2.3,4.2,3.2,5.5,2.3,1.6-1.3,1.6-3.8,0-6.1-1.4-2.3-3.9-3.2-5.5-2h0Z"/>
  </symbol>
  <symbol id="si-instagram" viewBox="0 0 512 512">
    <path d="M256.1,131.3c-69,0-124.6,55.6-124.6,124.6s55.6,124.6,124.6,124.6,124.6-55.6,124.6-124.6-55.6-124.6-124.6-124.6ZM256.1,336.9c-44.6,0-81-36.3-81-81s36.3-81,81-81,81,36.3,81,81-36.4,81-81,81h0ZM414.8,126.2c0,16.2-13,29.1-29.1,29.1s-29.1-13-29.1-29.1,13-29.1,29.1-29.1,29.1,13,29.1,29.1ZM497.3,155.7c-1.8-38.9-10.7-73.4-39.2-101.8-28.4-28.4-62.9-37.3-101.8-39.2-40.1-2.3-160.4-2.3-200.5,0-38.8,1.8-73.3,10.7-101.8,39.1S16.7,116.7,14.8,155.6c-2.3,40.1-2.3,160.4,0,200.5,1.8,38.9,10.7,73.4,39.2,101.8,28.5,28.4,62.9,37.3,101.8,39.2,40.1,2.3,160.4,2.3,200.5,0,38.9-1.8,73.4-10.7,101.8-39.2,28.4-28.4,37.3-62.9,39.2-101.8,2.3-40.1,2.3-160.2,0-200.4h0ZM445.5,399.1c-8.5,21.3-24.8,37.6-46.2,46.2-32,12.7-107.9,9.8-143.2,9.8s-111.3,2.8-143.2-9.8c-21.3-8.5-37.6-24.8-46.2-46.2-12.7-32-9.8-107.9-9.8-143.2s-2.8-111.3,9.8-143.2c8.5-21.3,24.8-37.6,46.2-46.2,32-12.7,107.9-9.8,143.2-9.8s111.3-2.8,143.2,9.8c21.3,8.5,37.6,24.8,46.2,46.2,12.7,32,9.8,107.9,9.8,143.2s2.9,111.3-9.8,143.2Z"/>
  </symbol>
  <symbol id="si-mail" viewBox="0 0 512 512">
    <path d="M100,112c-19.9,0-36,16.1-36,36s5.3,22,14.4,28.8l156,117c12.8,9.6,30.4,9.6,43.2,0l156-117c9.1-6.8,14.4-17.5,14.4-28.8,0-19.9-16.1-36-36-36H100ZM64,211v141c0,26.5,21.5,48,48,48h288c26.5,0,48-21.5,48-48v-141l-148.8,111.6c-25.6,19.2-60.8,19.2-86.4,0l-148.8-111.6Z"/>
  </symbol>
  <symbol id="si-pin" viewBox="0 0 512 512">
    <path d="M112.8,206.1c0-77.7,64.1-140.6,143.2-140.6s143.2,62.9,143.2,140.6-89.6,195.6-127.1,236.2c-8.8,9.5-23.5,9.5-32.3,0-37.4-40.6-127.1-147.3-127.1-236.2h0ZM256,256.4c26.3,0,47.7-21.4,47.7-47.7s-21.4-47.7-47.7-47.7-47.7,21.4-47.7,47.7,21.4,47.7,47.7,47.7Z"/>
  </symbol>
  <symbol id="si-send" viewBox="0 0 512 512">
    <path d="M53.5,259.5c-19.1,10.9-17.3,39.9,3,48.3l118.4,49.3v87.2c0,15.2,12.4,27.6,27.6,27.6s15.9-3.6,21.2-10l52.3-62.7,104.6,43.5c15.9,6.7,34.5-3.8,37.1-20.8l54-350.9c1.6-10.2-2.9-20.5-11.4-26.3-8.6-5.8-19.7-6.3-28.7-1.2L53.5,259.5h0ZM97.5,281L385.8,116.4l-185.4,207,1,.8-103.9-43.2h0ZM380.4,398.9l-140.7-58.6,180.8-201.8-40.1,260.5h0Z"/>
  </symbol>
  <symbol id="si-tel" viewBox="0 0 512 512">
    <path d="M184.2,82.7c-5.9-14.2-21.4-21.7-36.1-17.7l-4.1,1.1c-48.5,13.2-89.9,60.2-77.8,117.3,27.8,131.3,131.1,234.5,262.4,262.4,57.2,12.2,104.1-29.3,117.3-77.8l1.1-4.1c4.1-14.8-3.5-30.2-17.6-36.1l-73-30.4c-12.4-5.2-26.7-1.6-35.3,8.9l-29,35.4c-52.7-26.2-95.2-70-119.6-123.8l33.2-27c10.4-8.5,14-22.8,8.9-35.3l-30.5-73Z"/>
  </symbol>
  <symbol id="si-x" viewBox="0 0 512 512">
    <path d="M389.7,47.2h70.9l-154.8,176.9,182.1,240.7h-142.6l-111.7-146-127.7,146H34.9l165.5-189.2L25.9,47.2h146.2l100.9,133.4,116.8-133.4ZM364.8,422.4h39.3L150.7,87.3h-42.2l256.3,335.1Z"/>
  </symbol>
  <symbol id="si-youtube" viewBox="0 0 512 512">
    <path d="M500.4,132.9c-5.9-22.2-23.1-39.5-45.1-45.4-39.8-10.7-199.3-10.7-199.3-10.7,0,0-159.5,0-199.3,10.7-22,5.9-39.2,23.2-45.1,45.4C1,172.9,1,256.4,1,256.4c0,0,0,83.5,10.6,123.6,5.9,22.2,23.1,38.8,45.1,44.7,39.8,10.7,199.3,10.7,199.3,10.7,0,0,159.5,0,199.3-10.7,22-5.9,39.2-22.6,45.1-44.7,10.6-40,10.6-123.6,10.6-123.6,0,0,0-83.5-10.6-123.6h0ZM203.9,332.2v-151.7l133.2,75.9-133.2,75.9h0Z"/>
  </symbol>
</svg>
